# xmcd
#
# Track frame offsets:
# 150
# 15882
# 30079
# 46327
# 59396
# 78181
# 95006
# 107008
# 120360
# 136045
# 143180
# 157834
#
# Disc length: 2312 seconds
#
# Revision: 0
# Processed by: cddbd v1.4PL0 Copyright (c) Steve Scherf et al.
# Submitted via: Audion 3.0.2 (http://www.panic.com/audion/)
#
DISCID=7f09060c
DTITLE=The kings of infinite space - Queenie
DYEAR=1900
DGENRE=
TTITLE0=Nu-way
TTITLE1=Speedborder
TTITLE2=Slut (that i'm living with)
TTITLE3=Cool
TTITLE4=There's no-one like you
TTITLE5=Shockalockaboom
TTITLE6=Misunderstood
TTITLE7=The greatest little girl in the world
TTITLE8=Mademoiselle
TTITLE9=San Francisco
TTITLE10=Heroin
TTITLE11=Worm
EXTD=
EXTT0=
EXTT1=
EXTT2=
EXTT3=
EXTT4=
EXTT5=
EXTT6=
EXTT7=
EXTT8=
EXTT9=
EXTT10=
EXTT11=
PLAYORDER=
